<svg width="18" height="18" viewBox="0 0 18 18" fill="none" xmlns="http://www.w3.org/2000/svg">
<path d="M13.2187 3.37477C12.9268 3.37436 12.6384 3.43948 12.375 3.56532V3.09352C12.3752 2.62429 12.2077 2.17043 11.9029 1.81372C11.598 1.457 11.1758 1.2209 10.7123 1.14796C10.2487 1.07502 9.77441 1.17003 9.37474 1.41587C8.97506 1.66172 8.67634 2.04223 8.5324 2.48884C8.23259 2.32622 7.89567 2.24428 7.55467 2.25104C7.21366 2.25781 6.88026 2.35305 6.58714 2.52744C6.29402 2.70182 6.05122 2.94937 5.88256 3.24582C5.71389 3.54227 5.62513 3.87745 5.62498 4.21852V8.71852L5.35638 8.28751C5.0955 7.83729 4.66699 7.50867 4.16452 7.37346C3.66205 7.23825 3.12649 7.30747 2.6749 7.56597C2.22331 7.82447 1.89242 8.25124 1.75456 8.75299C1.6167 9.25473 1.68308 9.79065 1.9392 10.2436C3.0642 12.6181 3.97334 14.302 5.01326 15.3546C6.06373 16.4206 7.25623 16.8748 8.99998 16.8748C10.6404 16.8729 12.2132 16.2204 13.3731 15.0604C14.5331 13.9005 15.1856 12.3277 15.1875 10.6873V5.34352C15.1875 4.82138 14.9801 4.32062 14.6108 3.95141C14.2416 3.5822 13.7409 3.37477 13.2187 3.37477ZM14.0625 10.6873C14.061 12.0295 13.5271 13.3163 12.5781 14.2654C11.629 15.2144 10.3422 15.7483 8.99998 15.7498C7.56701 15.7498 6.6438 15.4066 5.81271 14.565C4.88248 13.6221 4.02607 12.0232 2.94607 9.74368C2.93974 9.72974 2.9327 9.71612 2.92498 9.7029C2.81309 9.50905 2.78279 9.2787 2.84074 9.06251C2.89869 8.84633 3.04015 8.66201 3.234 8.55013C3.42785 8.43824 3.6582 8.40794 3.87439 8.46589C4.09057 8.52384 4.27489 8.6653 4.38677 8.85915C4.38964 8.86478 4.39293 8.87019 4.39662 8.87532L5.70935 10.9847C5.77384 11.0888 5.87051 11.1689 5.9847 11.2131C6.09889 11.2572 6.22435 11.2629 6.34206 11.2292C6.45976 11.1956 6.56328 11.1245 6.6369 11.0267C6.71052 10.9288 6.75022 10.8097 6.74998 10.6873V4.21852C6.74998 3.99475 6.83887 3.78014 6.99711 3.6219C7.15534 3.46367 7.36995 3.37477 7.59373 3.37477C7.8175 3.37477 8.03211 3.46367 8.19035 3.6219C8.34858 3.78014 8.43748 3.99475 8.43748 4.21852V8.43727C8.43748 8.58646 8.49674 8.72953 8.60223 8.83502C8.70772 8.94051 8.85079 8.99977 8.99998 8.99977C9.14916 8.99977 9.29224 8.94051 9.39773 8.83502C9.50321 8.72953 9.56248 8.58646 9.56248 8.43727V3.09352C9.56248 2.86975 9.65137 2.65514 9.80961 2.4969C9.96784 2.33867 10.1825 2.24977 10.4062 2.24977C10.63 2.24977 10.8446 2.33867 11.0028 2.4969C11.1611 2.65514 11.25 2.86975 11.25 3.09352V8.43727C11.25 8.58646 11.3092 8.72953 11.4147 8.83502C11.5202 8.94051 11.6633 8.99977 11.8125 8.99977C11.9617 8.99977 12.1047 8.94051 12.2102 8.83502C12.3157 8.72953 12.375 8.58646 12.375 8.43727V5.34352C12.375 5.11975 12.4639 4.90514 12.6221 4.7469C12.7803 4.58867 12.995 4.49977 13.2187 4.49977C13.4425 4.49977 13.6571 4.58867 13.8153 4.7469C13.9736 4.90514 14.0625 5.11975 14.0625 5.34352V10.6873Z" fill="#E8E9EA"/>
</svg>
