<svg width="34" height="34" viewBox="0 0 34 34" fill="none" xmlns="http://www.w3.org/2000/svg">
<path fill-rule="evenodd" clip-rule="evenodd" d="M28.1428 5.79632C15.0752 -6.89282 -5.42473 8.80464 3.45675 24.7156L1.23145 32.8403L9.54614 30.6602C25.4537 39.0708 40.6827 18.6881 28.1428 5.79632Z" fill="#F1F1F1"/>
<path fill-rule="evenodd" clip-rule="evenodd" d="M17.0488 30.1732C14.4672 30.1824 11.9577 29.4072 9.79322 28.0329L4.76258 29.3518L6.10558 24.4486C4.59666 22.2125 3.74564 19.5897 3.7572 16.8751C3.7334 5.12849 18.1817 -0.860611 26.4508 7.48605C34.7863 15.7616 28.7989 30.1991 17.0488 30.1732Z" fill="#66E066"/>
<path fill-rule="evenodd" clip-rule="evenodd" d="M24.3391 20.2217C23.9396 20.0218 21.9751 19.0552 21.6089 18.9219C21.2428 18.7886 20.9762 18.722 20.71 19.1222C20.4434 19.522 19.6784 20.4217 19.4452 20.6879C19.2123 20.9548 18.979 20.9881 18.5795 20.7882C17.7163 20.9034 13.2878 17.1583 13.1436 16.0384C12.9107 15.6389 13.1188 15.4223 13.3191 15.2231C13.6669 14.8412 14.1072 14.3612 14.3176 13.857C14.4509 13.5901 14.3843 13.3568 14.2843 13.1569C14.1844 12.957 13.4078 10.9809 13.0525 10.1911C12.7533 9.52569 12.4381 9.51243 12.1535 9.50053C11.4793 9.51107 10.9574 9.33597 10.3223 9.99115C7.94093 12.2831 9.03301 15.5039 10.5552 17.4558C10.7548 17.7224 13.3194 21.8854 17.3807 23.4868C20.7559 24.8179 21.4427 24.553 22.1754 24.4864C22.9081 24.4197 24.5394 23.5201 24.8723 22.5871C25.2051 21.6542 25.2051 20.8545 25.1055 20.6875C25.0052 20.5216 24.7386 20.4217 24.3391 20.2217Z" fill="#F1F1F1"/>
</svg>
