<svg width="44" height="44" viewBox="0 0 44 44" fill="none" xmlns="http://www.w3.org/2000/svg">
<mask id="mask0_0_128" style="mask-type:alpha" maskUnits="userSpaceOnUse" x="0" y="0" width="44" height="44">
<circle cx="22" cy="22" r="22" fill="#C4C4C4"/>
</mask>
<g mask="url(#mask0_0_128)">
</g>
<g clip-path="url(#clip0_0_128)">
<path d="M35.5452 7.54816H8.39628V32.2396H35.5452V7.54816Z" fill="white"/>
<path fill-rule="evenodd" clip-rule="evenodd" d="M43.9558 22.0004C43.9558 34.1346 34.1193 43.9711 21.985 43.9711C9.85094 43.9711 0.0143163 34.1346 0.0143163 22.0004C0.0143163 9.86625 9.85094 0.02962 21.985 0.02962C34.1193 0.02962 43.9558 9.86625 43.9558 22.0004ZM15.7592 30.7436H11.4953C10.5993 30.7436 10.1567 30.7436 9.88687 30.571C9.5954 30.382 9.41729 30.069 9.3957 29.7235C9.3795 29.4052 9.60081 29.0164 10.0434 28.2392L20.5715 9.68197C21.0195 8.89395 21.2461 8.49994 21.5322 8.35422C21.8399 8.1977 22.2069 8.1977 22.5145 8.35422C22.8006 8.49994 23.0273 8.89395 23.4753 9.68197L25.6396 13.4601L25.6507 13.4794C26.1345 14.3248 26.3799 14.7535 26.487 15.2034C26.6057 15.6946 26.6057 16.2127 26.487 16.7039C26.3791 17.1573 26.1362 17.5891 25.645 18.4473L20.1148 28.223L20.1005 28.2481C19.6135 29.1004 19.3667 29.5324 19.0246 29.8583C18.6522 30.2147 18.2042 30.4736 17.713 30.6195C17.265 30.7436 16.7631 30.7436 15.7592 30.7436ZM26.5269 30.7436H32.6366C33.538 30.7436 33.9914 30.7436 34.2615 30.5657C34.5528 30.3767 34.7363 30.0581 34.7527 29.7129C34.7682 29.4049 34.5517 29.0313 34.1275 28.2992C34.1128 28.2743 34.0982 28.2489 34.0833 28.2231L31.0229 22.9877L30.9881 22.9288C30.558 22.2015 30.3409 21.8343 30.0621 21.6924C29.7547 21.5358 29.3928 21.5358 29.0853 21.6924C28.8046 21.8381 28.5779 22.2213 28.13 22.9931L25.0804 28.2285L25.07 28.2466C24.6236 29.0172 24.4005 29.4022 24.4166 29.7182C24.4382 30.0637 24.6163 30.382 24.9077 30.571C25.1722 30.7436 25.6256 30.7436 26.5269 30.7436Z" fill="#E84142"/>
</g>
<defs>
<clipPath id="clip0_0_128">
<rect width="43.4911" height="43.52" fill="white" transform="scale(1.01103)"/>
</clipPath>
</defs>
</svg>
