<svg width="16" height="16" viewBox="0 0 16 16" fill="none" xmlns="http://www.w3.org/2000/svg">
<path d="M15.9865 1.21174C15.9675 0.899695 15.835 0.60538 15.6139 0.384324C15.3929 0.163268 15.0986 0.0307581 14.7865 0.011795C13.7802 -0.0482022 11.2083 0.0437934 9.07399 2.17729L8.69401 2.56208H4.02782C3.8591 2.56113 3.69186 2.59374 3.53585 2.65801C3.37984 2.72228 3.23816 2.81693 3.11907 2.93646L0.375194 5.68193C0.20692 5.85009 0.088841 6.06182 0.0342087 6.29336C-0.0204237 6.52489 -0.00944729 6.76707 0.0659061 6.99272C0.14126 7.21836 0.278008 7.41854 0.460804 7.57079C0.643599 7.72304 0.865209 7.82133 1.10076 7.85463L4.17822 8.28421L7.71485 11.8208L8.14443 14.8999C8.17747 15.1355 8.27573 15.3571 8.42813 15.5397C8.58052 15.7224 8.78096 15.8588 9.00679 15.9335C9.13833 15.9774 9.2761 15.9998 9.41477 15.9999C9.5827 16.0002 9.74902 15.9673 9.90417 15.903C10.0593 15.8387 10.2002 15.7444 10.3187 15.6255L13.0642 12.8816C13.1837 12.7625 13.2784 12.6208 13.3427 12.4648C13.4069 12.3088 13.4395 12.1416 13.4386 11.9728V7.30666L13.8202 6.92507C15.9545 4.79077 16.0465 2.21889 15.9865 1.21174ZM4.02782 3.84202H7.41407L4.25182 7.00347L1.27915 6.58909L4.02782 3.84202ZM9.98035 3.08605C10.5953 2.46731 11.3352 1.98691 12.1506 1.67693C12.9661 1.36696 13.8382 1.23454 14.7089 1.28854C14.765 2.15968 14.634 3.03273 14.3246 3.84903C14.0153 4.66532 13.5348 5.40594 12.9154 6.02112L8.31883 10.6161L5.38456 7.68184L9.98035 3.08605ZM12.1586 11.9728L9.41238 14.7215L8.99719 11.7481L12.1586 8.5866V11.9728ZM6.22612 12.7328C5.86614 13.5216 4.6622 15.3615 1.27915 15.3615C1.10942 15.3615 0.946643 15.2941 0.826625 15.174C0.706607 15.054 0.639182 14.8912 0.639182 14.7215C0.639182 11.3385 2.4791 10.1345 3.26786 9.77374C3.34434 9.73886 3.42694 9.71939 3.51094 9.71644C3.59495 9.71348 3.67871 9.7271 3.75745 9.75652C3.83619 9.78593 3.90836 9.83057 3.96985 9.88788C4.03134 9.94519 4.08094 10.014 4.11582 10.0905C4.1507 10.167 4.17017 10.2496 4.17313 10.3336C4.17608 10.4176 4.16246 10.5014 4.13305 10.5801C4.10363 10.6589 4.05899 10.731 4.00168 10.7925C3.94437 10.854 3.87551 10.9036 3.79904 10.9385C3.28466 11.1729 2.14951 11.9272 1.94952 14.0511C4.07342 13.8512 4.82939 12.716 5.06218 12.2016C5.09705 12.1252 5.14665 12.0563 5.20814 11.999C5.26963 11.9417 5.34181 11.897 5.42055 11.8676C5.49929 11.8382 5.58305 11.8246 5.66706 11.8275C5.75106 11.8305 5.83366 11.85 5.91014 11.8848C5.98662 11.9197 6.05548 11.9693 6.11279 12.0308C6.1701 12.0923 6.21473 12.1645 6.24415 12.2432C6.27357 12.322 6.28718 12.4057 6.28423 12.4897C6.28127 12.5737 6.2618 12.6563 6.22692 12.7328H6.22612Z" fill="#00A3FF"/>
</svg>
