<svg width="17" height="17" viewBox="0 0 17 17" fill="none" xmlns="http://www.w3.org/2000/svg">
<rect width="16.5039" height="16.5039" transform="scale(1.03006)" fill="white"/>
<path d="M13.281 4.25013V11.1564C13.281 11.2973 13.2251 11.4324 13.1254 11.532C13.0258 11.6317 12.8907 11.6876 12.7498 11.6876C12.6089 11.6876 12.4738 11.6317 12.3741 11.532C12.2745 11.4324 12.2185 11.2973 12.2185 11.1564V5.53243L4.62565 13.126C4.52597 13.2257 4.39077 13.2817 4.24979 13.2817C4.10882 13.2817 3.97362 13.2257 3.87393 13.126C3.77425 13.0263 3.71825 12.8911 3.71825 12.7501C3.71825 12.6092 3.77425 12.474 3.87393 12.3743L11.4675 4.78138H5.84354C5.70265 4.78138 5.56752 4.7254 5.46789 4.62578C5.36826 4.52615 5.31229 4.39102 5.31229 4.25013C5.31229 4.10923 5.36826 3.9741 5.46789 3.87448C5.56752 3.77485 5.70265 3.71888 5.84354 3.71888H12.7498C12.8907 3.71888 13.0258 3.77485 13.1254 3.87448C13.2251 3.9741 13.281 4.10923 13.281 4.25013Z" fill="black"/>
</svg>
