<svg width="19" height="19" viewBox="0 0 19 19" fill="none" xmlns="http://www.w3.org/2000/svg">
<path d="M16.7216 2.27252H2.83034C2.49541 2.27252 2.1742 2.40557 1.93737 2.6424C1.70055 2.87923 1.5675 3.20044 1.5675 3.53536V14.2695C1.5675 14.6045 1.70055 14.9257 1.93737 15.1625C2.1742 15.3993 2.49541 15.5324 2.83034 15.5324H4.09318V16.7952C4.09318 16.9627 4.15971 17.1233 4.27812 17.2417C4.39654 17.3601 4.55714 17.4266 4.72461 17.4266C4.89207 17.4266 5.05267 17.3601 5.17109 17.2417C5.2895 17.1233 5.35603 16.9627 5.35603 16.7952V15.5324H14.1959V16.7952C14.1959 16.9627 14.2625 17.1233 14.3809 17.2417C14.4993 17.3601 14.6599 17.4266 14.8274 17.4266C14.9948 17.4266 15.1554 17.3601 15.2738 17.2417C15.3923 17.1233 15.4588 16.9627 15.4588 16.7952V15.5324H16.7216C17.0566 15.5324 17.3778 15.3993 17.6146 15.1625C17.8514 14.9257 17.9845 14.6045 17.9845 14.2695V3.53536C17.9845 3.20044 17.8514 2.87923 17.6146 2.6424C17.3778 2.40557 17.0566 2.27252 16.7216 2.27252ZM16.7216 14.2695H2.83034V3.53536H16.7216V8.58674H15.4051C15.2468 7.65009 14.7424 6.80709 13.9918 6.22481C13.2413 5.64253 12.2994 5.36346 11.3527 5.4429C10.4061 5.52234 9.52391 5.95449 8.88091 6.65372C8.2379 7.35295 7.88103 8.26822 7.88103 9.21816C7.88103 10.1681 8.2379 11.0834 8.88091 11.7826C9.52391 12.4818 10.4061 12.914 11.3527 12.9934C12.2994 13.0729 13.2413 12.7938 13.9918 12.2115C14.7424 11.6292 15.2468 10.7862 15.4051 9.84958H16.7216V14.2695ZM12.7626 8.58674C12.6236 8.34599 12.4091 8.15783 12.1522 8.05145C11.8954 7.94506 11.6106 7.9264 11.3421 7.99835C11.0736 8.0703 10.8363 8.22884 10.6671 8.44939C10.4978 8.66994 10.4061 8.94017 10.4061 9.21816C10.4061 9.49616 10.4978 9.76638 10.6671 9.98693C10.8363 10.2075 11.0736 10.366 11.3421 10.438C11.6106 10.5099 11.8954 10.4913 12.1522 10.3849C12.4091 10.2785 12.6236 10.0903 12.7626 9.84958H14.117C13.9633 10.4448 13.5978 10.9635 13.089 11.3085C12.5803 11.6536 11.9631 11.8012 11.3533 11.7237C10.7434 11.6463 10.1828 11.349 9.77641 10.8878C9.37003 10.4265 9.14583 9.8329 9.14583 9.21816C9.14583 8.60342 9.37003 8.00979 9.77641 7.54853C10.1828 7.08728 10.7434 6.79006 11.3533 6.7126C11.9631 6.63514 12.5803 6.78276 13.089 7.12777C13.5978 7.47279 13.9633 7.99152 14.117 8.58674H12.7626Z" fill="#E8E9EA"/>
</svg>
