<svg width="44" height="44" viewBox="0 0 44 44" fill="none" xmlns="http://www.w3.org/2000/svg">
<mask id="mask0_0_133" style="mask-type:alpha" maskUnits="userSpaceOnUse" x="0" y="0" width="44" height="44">
<rect width="44" height="44" fill="#C4C4C4"/>
</mask>
<g mask="url(#mask0_0_133)">
<rect width="44" height="44" rx="21.76" fill="#FF8300"/>
<path d="M32.4836 19.2667C32.9227 16.3354 30.6893 14.7593 27.6378 13.7077L28.6279 9.73591L26.2113 9.13455L25.2464 13.0014C24.6114 12.842 23.9597 12.6937 23.3094 12.5455L24.2814 8.65347L21.8648 8.05071L20.8746 12.0211C20.3488 11.9008 19.8314 11.7833 19.3307 11.6574L19.3335 11.6449L15.9995 10.8128L15.3562 13.3944C15.3562 13.3944 17.1504 13.8055 17.1127 13.8307C18.0916 14.0755 18.2678 14.723 18.2385 15.2376L17.1113 19.7618C17.1784 19.7785 17.2651 19.8037 17.363 19.8415L17.1071 19.7785L15.5268 26.1166C15.4065 26.413 15.103 26.8592 14.4178 26.6899C14.4429 26.7249 12.6612 26.2522 12.6612 26.2522L11.4613 29.0184L14.608 29.803C15.1925 29.9498 15.7659 30.1037 16.3295 30.2477L15.3296 34.2642L17.7448 34.8656L18.7349 30.8938C19.395 31.0714 20.0355 31.2365 20.6621 31.3931L19.6747 35.3481L22.0913 35.9494L23.0913 31.9413C27.2141 32.7217 30.3131 32.407 31.6179 28.6786C32.6696 25.6774 31.5662 23.9447 29.3971 22.8161C30.9774 22.4525 32.1661 21.4134 32.4836 19.2667ZM26.9595 27.0116C26.2141 30.0142 21.1585 28.3905 19.5195 27.9836L20.8481 22.6623C22.4871 23.072 27.7413 23.8817 26.9595 27.0116ZM27.7077 19.2233C27.0267 21.9546 22.82 20.5659 21.4564 20.2261L22.6591 15.4012C24.0227 15.7411 28.4182 16.3746 27.7077 19.2233Z" fill="white"/>
</g>
</svg>
