<svg width="19" height="13" viewBox="0 0 19 13" fill="none" xmlns="http://www.w3.org/2000/svg">
<path d="M16.8683 7.63655C16.3981 5.80779 15.2684 4.21743 13.6965 3.17127H18.3668C18.5347 3.17127 18.6958 3.10455 18.8145 2.98579C18.9333 2.86703 19 2.70596 19 2.53801C19 2.37006 18.9333 2.20899 18.8145 2.09023C18.6958 1.97147 18.5347 1.90475 18.3668 1.90475H11.955C11.8155 1.35988 11.4986 0.876942 11.0543 0.532068C10.61 0.187193 10.0636 0 9.50111 0C8.93867 0 8.39222 0.187193 7.94792 0.532068C7.50362 0.876942 7.18674 1.35988 7.04723 1.90475H0.635465C0.467514 1.90475 0.306442 1.97147 0.187682 2.09023C0.068923 2.20899 0.00220466 2.37006 0.00220466 2.53801C0.00220466 2.70596 0.068923 2.86703 0.187682 2.98579C0.306442 3.10455 0.467514 3.17127 0.635465 3.17127H5.30576C3.73382 4.21743 2.60413 5.80779 2.13392 7.63655C1.52589 7.73356 0.97401 8.04873 0.58148 8.52311C0.188951 8.99748 -0.0173528 9.5986 0.00114417 10.214C0.0196411 10.8295 0.261672 11.4171 0.681982 11.8671C1.10229 12.317 1.6721 12.5985 2.28486 12.6588C2.89762 12.7191 3.51137 12.5542 4.01136 12.1949C4.51135 11.8355 4.86333 11.3064 5.00149 10.7063C5.13965 10.1063 5.05453 9.47651 4.76205 8.93469C4.46957 8.39287 3.98975 7.97614 3.41231 7.76241C3.6842 6.82496 4.16756 5.9624 4.82518 5.2411C5.48279 4.51981 6.29714 3.95901 7.20554 3.60189C7.40878 4.04013 7.73311 4.41111 8.14026 4.67109C8.54741 4.93107 9.02041 5.06921 9.50349 5.06921C9.98656 5.06921 10.4596 4.93107 10.8667 4.67109C11.2739 4.41111 11.5982 4.04013 11.8014 3.60189C12.7089 3.95961 13.5224 4.52067 14.1791 5.24193C14.8359 5.96319 15.3185 6.82545 15.5899 7.76241C15.0122 7.97541 14.5318 8.39155 14.2387 8.93301C13.9455 9.47447 13.8596 10.1042 13.997 10.7044C14.1345 11.3046 14.4858 11.8342 14.9853 12.1941C15.4849 12.5541 16.0984 12.7198 16.7113 12.6602C17.3241 12.6006 17.8943 12.3199 18.3151 11.8704C18.736 11.421 18.9788 10.8336 18.998 10.2182C19.0172 9.60278 18.8117 9.00141 18.4197 8.52656C18.0277 8.0517 17.4762 7.73587 16.8683 7.63813V7.63655ZM3.80177 10.1371C3.80177 10.3876 3.72749 10.6325 3.58832 10.8408C3.44915 11.0491 3.25135 11.2114 3.01992 11.3072C2.7885 11.4031 2.53384 11.4282 2.28816 11.3793C2.04248 11.3304 1.81681 11.2098 1.63968 11.0327C1.46255 10.8556 1.34193 10.6299 1.29306 10.3842C1.24419 10.1385 1.26927 9.88388 1.36513 9.65246C1.46099 9.42103 1.62333 9.22323 1.83161 9.08406C2.03988 8.94489 2.28475 8.87061 2.53525 8.87061C2.87115 8.87061 3.19329 9.00405 3.43081 9.24157C3.66833 9.47909 3.80177 9.80123 3.80177 10.1371ZM9.50111 3.80453C9.25062 3.80453 9.00575 3.73025 8.79747 3.59108C8.58919 3.45192 8.42686 3.25411 8.331 3.02269C8.23514 2.79126 8.21006 2.5366 8.25893 2.29092C8.3078 2.04524 8.42842 1.81957 8.60555 1.64244C8.78267 1.46532 9.00834 1.34469 9.25403 1.29582C9.49971 1.24695 9.75436 1.27204 9.98579 1.3679C10.2172 1.46376 10.415 1.62609 10.5542 1.83437C10.6934 2.04265 10.7676 2.28751 10.7676 2.53801C10.7676 2.87391 10.6342 3.19606 10.3967 3.43357C10.1592 3.67109 9.83701 3.80453 9.50111 3.80453ZM16.467 11.4037C16.2165 11.4037 15.9716 11.3294 15.7633 11.1902C15.5551 11.051 15.3927 10.8532 15.2969 10.6218C15.201 10.3904 15.1759 10.1357 15.2248 9.89005C15.2737 9.64437 15.3943 9.41869 15.5714 9.24157C15.7485 9.06444 15.9742 8.94382 16.2199 8.89495C16.4656 8.84608 16.7202 8.87116 16.9517 8.96702C17.1831 9.06288 17.3809 9.22521 17.52 9.43349C17.6592 9.64177 17.7335 9.88664 17.7335 10.1371C17.7335 10.473 17.6001 10.7952 17.3625 11.0327C17.125 11.2702 16.8029 11.4037 16.467 11.4037Z" fill="#E8E9EA"/>
</svg>
