<svg width="16" height="18" viewBox="0 0 16 18" fill="none" xmlns="http://www.w3.org/2000/svg">
<path d="M15.36 3.85555L8.59077 0.151703C8.40977 0.0521821 8.20656 0 8 0C7.79345 0 7.59024 0.0521821 7.40923 0.151703L0.64 3.85786C0.446684 3.96363 0.28531 4.11937 0.172732 4.3088C0.060154 4.49824 0.000500198 4.71442 0 4.93478V12.2917C0.000500198 12.5121 0.060154 12.7283 0.172732 12.9177C0.28531 13.1071 0.446684 13.2629 0.64 13.3686L7.40923 17.074C7.5901 17.174 7.79336 17.2264 8 17.2264C8.20664 17.2264 8.40991 17.174 8.59077 17.074L15.36 13.3686C15.5533 13.2629 15.7147 13.1071 15.8273 12.9177C15.9399 12.7283 15.9995 12.5121 16 12.2917V4.93478C15.9999 4.71403 15.9405 4.49736 15.8279 4.30749C15.7153 4.11761 15.5537 3.96151 15.36 3.85555ZM11.0769 10.4594V14.3125L8.61539 15.6602V8.97786L14.7692 5.60863V8.07017L11.3969 9.91632C11.2996 9.96958 11.2184 10.0482 11.1621 10.1438C11.1058 10.2394 11.0763 10.3484 11.0769 10.4594ZM4.60308 9.92094L1.23077 8.07478V5.61324L7.38462 8.98248V15.6648L4.92308 14.3125V10.4594C4.92283 10.3492 4.893 10.2411 4.83671 10.1464C4.78042 10.0517 4.69974 9.97382 4.60308 9.92094ZM4.54923 3.12017L7.70308 4.84709C7.79365 4.89664 7.89523 4.92262 7.99847 4.92262C8.1017 4.92262 8.20328 4.89664 8.29385 4.84709L11.4477 3.12017L14.1 4.5717L8 7.91171L1.89692 4.57017L4.54923 3.12017ZM8 1.22863L10.1692 2.41632L8 3.60478L5.83077 2.41709L8 1.22863ZM1.23077 9.47632L3.69231 10.824V13.6386L1.23077 12.2917V9.47632ZM12.3077 13.6386V10.824L14.7692 9.47632V12.2917L12.3077 13.6386Z" fill="#00A3FF"/>
</svg>
