<svg width="17" height="17" viewBox="0 0 17 17" fill="none" xmlns="http://www.w3.org/2000/svg">
<path d="M13.2809 4.25013V11.1564C13.2809 11.2973 13.2249 11.4324 13.1253 11.532C13.0257 11.6317 12.8906 11.6876 12.7497 11.6876C12.6088 11.6876 12.4736 11.6317 12.374 11.532C12.2744 11.4324 12.2184 11.2973 12.2184 11.1564V5.53243L4.62553 13.126C4.52584 13.2257 4.39064 13.2817 4.24967 13.2817C4.10869 13.2817 3.97349 13.2257 3.87381 13.126C3.77412 13.0263 3.71812 12.8911 3.71812 12.7501C3.71812 12.6092 3.77412 12.474 3.87381 12.3743L11.4674 4.78138H5.84342C5.70252 4.78138 5.5674 4.7254 5.46777 4.62578C5.36814 4.52615 5.31217 4.39102 5.31217 4.25013C5.31217 4.10923 5.36814 3.9741 5.46777 3.87448C5.5674 3.77485 5.70252 3.71888 5.84342 3.71888H12.7497C12.8906 3.71888 13.0257 3.77485 13.1253 3.87448C13.2249 3.9741 13.2809 4.10923 13.2809 4.25013Z" fill="black"/>
</svg>
