<svg width="17" height="17" viewBox="0 0 17 17" fill="none" xmlns="http://www.w3.org/2000/svg">
<rect width="17" height="17" rx="5" fill="white"/>
<path d="M13.281 4.25V11.1562C13.281 11.2971 13.2251 11.4323 13.1254 11.5319C13.0258 11.6315 12.8907 11.6875 12.7498 11.6875C12.6089 11.6875 12.4738 11.6315 12.3741 11.5319C12.2745 11.4323 12.2185 11.2971 12.2185 11.1562V5.5323L4.62565 13.1259C4.52597 13.2255 4.39077 13.2815 4.24979 13.2815C4.10882 13.2815 3.97362 13.2255 3.87393 13.1259C3.77425 13.0262 3.71825 12.891 3.71825 12.75C3.71825 12.609 3.77425 12.4738 3.87393 12.3741L11.4675 4.78125H5.84354C5.70265 4.78125 5.56752 4.72528 5.46789 4.62565C5.36826 4.52602 5.31229 4.3909 5.31229 4.25C5.31229 4.1091 5.36826 3.97398 5.46789 3.87435C5.56752 3.77472 5.70265 3.71875 5.84354 3.71875H12.7498C12.8907 3.71875 13.0258 3.77472 13.1254 3.87435C13.2251 3.97398 13.281 4.1091 13.281 4.25Z" fill="black"/>
</svg>
