<svg width="44" height="44" viewBox="0 0 44 44" fill="none" xmlns="http://www.w3.org/2000/svg">
<g opacity="0.5">
<mask id="mask0_0_169" style="mask-type:alpha" maskUnits="userSpaceOnUse" x="0" y="0" width="44" height="44">
<circle cx="22" cy="22" r="22" fill="#C4C4C4"/>
</mask>
<g mask="url(#mask0_0_169)">
<rect width="44" height="44" rx="21.4535" fill="#E6007A"/>
<g clip-path="url(#clip0_0_169)">
<path d="M22.1617 6.14022C15.4269 6.16684 9.97394 11.531 9.94689 18.1561C9.94689 19.4829 10.1646 20.8008 10.591 22.0592C10.9092 22.9159 11.8534 23.3771 12.7397 23.1123C13.5964 22.7891 14.0511 21.8679 13.778 21.0061C13.416 20.0253 13.255 18.9849 13.3027 17.9432C13.4495 13.1582 17.5113 9.39575 22.3756 9.54021C27.2399 9.68468 31.0646 13.6803 30.9177 18.4653C30.7799 22.945 27.1935 26.5832 22.6448 26.8557C22.6448 26.8557 20.9302 26.9583 20.0774 27.061C19.7631 27.1053 19.4513 27.1662 19.1434 27.2435C19.0996 27.2878 19.0288 27.2878 18.9837 27.2447L18.9824 27.2435C18.9515 27.2042 18.9515 27.1484 18.9824 27.1091L19.2478 25.6848L20.858 18.5604C21.0513 17.6708 20.4754 16.7951 19.5711 16.605C18.6668 16.415 17.7766 16.9814 17.5834 17.871C17.5834 17.871 13.7536 35.3094 13.7536 35.4678C13.5346 36.3156 14.055 37.1773 14.9168 37.3927C14.9258 37.3953 14.9361 37.3978 14.9452 37.3991H15.034C15.8946 37.6183 16.7731 37.1089 16.9947 36.2624C16.9986 36.2484 17.0024 36.2345 17.005 36.2193C17.0024 36.1927 17.0024 36.1661 17.005 36.1407C17.0527 35.9354 17.5357 33.6151 17.5357 33.6151C17.9016 31.8638 19.3367 30.5218 21.1324 30.2506C21.5022 30.1948 23.0557 30.0922 23.0557 30.0922C29.7648 29.4345 34.6612 23.5507 33.9914 16.951C33.3808 10.9316 28.3116 6.29736 22.1617 6.14022Z" fill="white"/>
<path d="M22.902 33.8458C21.8006 33.6202 20.7237 34.3159 20.4944 35.3981C20.4918 35.4083 20.4905 35.4184 20.4879 35.4286C20.2496 36.5044 20.9426 37.5676 22.0376 37.8021C22.0389 37.8021 22.0402 37.8021 22.0415 37.8034H22.0982C23.17 38.0581 24.2482 37.4092 24.5058 36.3562C24.5084 36.3486 24.5097 36.3397 24.5123 36.3321V36.2218C24.7017 35.1346 23.9957 34.0916 22.902 33.8458Z" fill="white"/>
</g>
</g>
</g>
<defs>
<clipPath id="clip0_0_169">
<rect width="23.8434" height="31.3728" fill="white" transform="translate(9.94689 6.14022) scale(1.01103)"/>
</clipPath>
</defs>
</svg>
