<svg width="19" height="15" viewBox="0 0 19 15" fill="none" xmlns="http://www.w3.org/2000/svg">
<path d="M4.77486 4.85554L1.60139 7.5001L4.77486 10.1447C4.83974 10.1966 4.89361 10.261 4.93332 10.334C4.97303 10.407 4.99778 10.4872 5.00612 10.5699C5.01446 10.6525 5.00623 10.7361 4.9819 10.8155C4.95757 10.895 4.91764 10.9688 4.86444 11.0327C4.81124 11.0965 4.74585 11.1491 4.67207 11.1874C4.5983 11.2257 4.51764 11.2488 4.4348 11.2555C4.35197 11.2623 4.26862 11.2524 4.18965 11.2265C4.11067 11.2006 4.03765 11.1593 3.97485 11.1048L0.224815 7.97979C0.154449 7.92114 0.097837 7.84773 0.0589873 7.76477C0.0201377 7.6818 0 7.59132 0 7.49971C0 7.4081 0.0201377 7.31761 0.0589873 7.23465C0.097837 7.15169 0.154449 7.07828 0.224815 7.01963L3.97485 3.89459C4.10228 3.78851 4.26664 3.73738 4.43176 3.75247C4.59688 3.76757 4.74925 3.84763 4.85533 3.97506C4.96142 4.10249 5.01254 4.26685 4.99745 4.43197C4.98236 4.59709 4.90229 4.74945 4.77486 4.85554ZM18.525 7.01963L14.775 3.89459C14.7119 3.84206 14.639 3.80248 14.5607 3.77809C14.4823 3.75371 14.3998 3.745 14.3181 3.75247C14.2363 3.75995 14.1568 3.78345 14.0841 3.82164C14.0115 3.85983 13.947 3.91197 13.8945 3.97506C13.7884 4.10249 13.7373 4.26685 13.7524 4.43197C13.7675 4.59709 13.8475 4.74945 13.975 4.85554L17.1484 7.5001L13.975 10.1447C13.9101 10.1966 13.8562 10.261 13.8165 10.334C13.7768 10.407 13.752 10.4872 13.7437 10.5699C13.7354 10.6525 13.7436 10.7361 13.7679 10.8155C13.7922 10.895 13.8322 10.9688 13.8854 11.0327C13.9386 11.0965 14.004 11.1491 14.0778 11.1874C14.1515 11.2257 14.2322 11.2488 14.315 11.2555C14.3979 11.2623 14.4812 11.2524 14.5602 11.2265C14.6392 11.2006 14.7122 11.1593 14.775 11.1048L18.525 7.97979C18.5954 7.92114 18.652 7.84773 18.6908 7.76477C18.7297 7.6818 18.7498 7.59132 18.7498 7.49971C18.7498 7.4081 18.7297 7.31761 18.6908 7.23465C18.652 7.15169 18.5954 7.07828 18.525 7.01963ZM12.0882 0.0375211C12.0111 0.00951008 11.9292 -0.00302983 11.8472 0.000617347C11.7652 0.00426452 11.6847 0.0240275 11.6103 0.0587775C11.536 0.0935275 11.4692 0.142584 11.4138 0.203146C11.3584 0.263708 11.3154 0.33459 11.2874 0.411744L6.28738 14.1619C6.25925 14.2391 6.24662 14.3211 6.2502 14.4032C6.25379 14.4852 6.27353 14.5658 6.30829 14.6403C6.34304 14.7147 6.39214 14.7816 6.45277 14.837C6.51339 14.8925 6.58436 14.9355 6.6616 14.9635C6.73008 14.9878 6.80222 15.0002 6.87489 15.0002C7.00324 15.0002 7.12848 14.9607 7.23359 14.887C7.33871 14.8133 7.41859 14.7091 7.46239 14.5885L12.4624 0.838311C12.4905 0.761159 12.503 0.679245 12.4993 0.597246C12.4957 0.515247 12.4759 0.43477 12.4412 0.360409C12.4064 0.286048 12.3574 0.219261 12.2968 0.163859C12.2363 0.108458 12.1654 0.0655281 12.0882 0.0375211Z" fill="#00A3FF"/>
</svg>
