<svg width="20" height="13" viewBox="0 0 20 13" fill="none" xmlns="http://www.w3.org/2000/svg">
<path d="M9.148 8.73956C10.0003 8.17215 10.6474 7.34552 10.9935 6.38191C11.3397 5.4183 11.3666 4.36886 11.0702 3.3888C10.7738 2.40874 10.1699 1.55007 9.34771 0.93979C8.52556 0.329506 7.52884 0 6.50493 0C5.48103 0 4.48431 0.329506 3.66216 0.93979C2.84001 1.55007 2.23609 2.40874 1.93969 3.3888C1.64329 4.36886 1.67016 5.4183 2.01632 6.38191C2.36249 7.34552 3.00956 8.17215 3.86186 8.73956C2.32013 9.30779 1.00346 10.3593 0.108308 11.7372C0.0612624 11.8071 0.0285841 11.8857 0.0121732 11.9683C-0.00423772 12.051 -0.00405398 12.1361 0.0127137 12.2187C0.0294815 12.3013 0.0624987 12.3797 0.109846 12.4494C0.157194 12.5191 0.217927 12.5788 0.288516 12.6248C0.359105 12.6708 0.438141 12.7024 0.521031 12.7176C0.603921 12.7328 0.68901 12.7314 0.771354 12.7135C0.853697 12.6955 0.931652 12.6614 1.00069 12.6131C1.06972 12.5647 1.12846 12.5032 1.17349 12.4319C1.7509 11.5438 2.54101 10.8141 3.47207 10.3089C4.40313 9.80366 5.44564 9.53904 6.50493 9.53904C7.56422 9.53904 8.60674 9.80366 9.5378 10.3089C10.4689 10.8141 11.259 11.5438 11.8364 12.4319C11.9297 12.5705 12.0737 12.6669 12.2375 12.7001C12.4012 12.7334 12.5715 12.7008 12.7114 12.6096C12.8514 12.5183 12.9498 12.3756 12.9853 12.2123C13.0209 12.0491 12.9908 11.8784 12.9016 11.7372C12.0064 10.3593 10.6897 9.30779 9.148 8.73956ZM3.00734 4.77138C3.00734 4.07962 3.21247 3.4034 3.59679 2.82822C3.98111 2.25305 4.52736 1.80475 5.16646 1.54003C5.80556 1.2753 6.50881 1.20604 7.18728 1.34099C7.86575 1.47595 8.48896 1.80906 8.97811 2.29821C9.46725 2.78736 9.80037 3.41057 9.93532 4.08904C10.0703 4.7675 10.001 5.47075 9.73629 6.10986C9.47156 6.74896 9.02327 7.29521 8.44809 7.67953C7.87292 8.06385 7.19669 8.26898 6.50493 8.26898C5.57764 8.26793 4.68862 7.89909 4.03292 7.24339C3.37722 6.5877 3.00839 5.69868 3.00734 4.77138ZM19.7115 12.6171C19.5703 12.7092 19.3982 12.7415 19.2332 12.7067C19.0682 12.672 18.9237 12.5731 18.8316 12.4319C18.2549 11.5433 17.4648 10.8132 16.5336 10.3082C15.6023 9.80323 14.5595 9.53941 13.5001 9.54083C13.3315 9.54083 13.1697 9.47383 13.0505 9.35457C12.9312 9.23531 12.8642 9.07356 12.8642 8.9049C12.8642 8.73625 12.9312 8.5745 13.0505 8.45524C13.1697 8.33598 13.3315 8.26898 13.5001 8.26898C14.0152 8.26849 14.5238 8.15425 14.9896 7.93441C15.4554 7.71458 15.8669 7.39457 16.1947 6.99726C16.5225 6.59996 16.7585 6.13515 16.8859 5.63606C17.0132 5.13698 17.0287 4.61592 16.9313 4.11014C16.834 3.60435 16.6261 3.12631 16.3225 2.71018C16.019 2.29405 15.6273 1.9501 15.1754 1.70291C14.7235 1.45571 14.2226 1.31137 13.7085 1.2802C13.1944 1.24903 12.6797 1.3318 12.2012 1.52259C12.1232 1.55632 12.0393 1.57406 11.9543 1.57478C11.8693 1.5755 11.785 1.55917 11.7065 1.52678C11.6279 1.49438 11.5566 1.44656 11.4969 1.38615C11.4371 1.32574 11.39 1.25396 11.3585 1.17505C11.3269 1.09615 11.3115 1.01171 11.3131 0.926746C11.3147 0.841777 11.3334 0.757996 11.3679 0.680351C11.4024 0.602706 11.4522 0.532774 11.5142 0.474687C11.5763 0.416599 11.6493 0.371534 11.7291 0.342156C12.824 -0.0945261 14.0419 -0.11024 15.1478 0.298044C16.2536 0.706328 17.1691 1.50968 17.7176 2.55313C18.2661 3.59657 18.4087 4.80617 18.118 5.94858C17.8272 7.09098 17.1237 8.08525 16.1432 8.73956C17.6849 9.30779 19.0016 10.3593 19.8967 11.7372C19.9889 11.8784 20.0211 12.0505 19.9864 12.2155C19.9516 12.3805 19.8528 12.525 19.7115 12.6171Z" fill="#E8E9EA"/>
</svg>
