<svg width="19" height="19" viewBox="0 0 19 19" fill="none" xmlns="http://www.w3.org/2000/svg">
<path d="M16.8174 3.58127H2.92612C2.59119 3.58127 2.26998 3.71432 2.03315 3.95115C1.79632 4.18798 1.66327 4.50919 1.66327 4.84412V16.2097C1.66327 16.5446 1.79632 16.8658 2.03315 17.1027C2.26998 17.3395 2.59119 17.4726 2.92612 17.4726H16.8174C17.1523 17.4726 17.4735 17.3395 17.7104 17.1027C17.9472 16.8658 18.0802 16.5446 18.0802 16.2097V4.84412C18.0802 4.50919 17.9472 4.18798 17.7104 3.95115C17.4735 3.71432 17.1523 3.58127 16.8174 3.58127ZM16.8174 16.2097H2.92612V4.84412H16.8174V16.2097ZM6.08323 7.05409C6.08323 7.24142 6.02768 7.42454 5.9236 7.58029C5.81953 7.73605 5.67161 7.85744 5.49854 7.92913C5.32548 8.00082 5.13504 8.01957 4.95132 7.98303C4.76759 7.94648 4.59883 7.85628 4.46637 7.72382C4.33391 7.59136 4.2437 7.4226 4.20716 7.23887C4.17061 7.05514 4.18937 6.86471 4.26106 6.69164C4.33274 6.51858 4.45414 6.37065 4.60989 6.26658C4.76565 6.16251 4.94877 6.10696 5.13609 6.10696C5.38729 6.10696 5.62819 6.20675 5.80582 6.38437C5.98344 6.56199 6.08323 6.8029 6.08323 7.05409ZM9.24034 7.05409C9.24034 7.24142 9.18479 7.42454 9.08071 7.58029C8.97664 7.73605 8.82872 7.85744 8.65565 7.92913C8.48259 8.00082 8.29215 8.01957 8.10843 7.98303C7.9247 7.94648 7.75594 7.85628 7.62348 7.72382C7.49102 7.59136 7.40081 7.4226 7.36427 7.23887C7.32772 7.05514 7.34648 6.86471 7.41817 6.69164C7.48985 6.51858 7.61125 6.37065 7.767 6.26658C7.92276 6.16251 8.10588 6.10696 8.2932 6.10696C8.5444 6.10696 8.7853 6.20675 8.96293 6.38437C9.14055 6.56199 9.24034 6.8029 9.24034 7.05409Z" fill="#E8E9EA"/>
</svg>
