<svg width="38" height="28" viewBox="0 0 38 28" fill="none" xmlns="http://www.w3.org/2000/svg">
<path d="M37.2048 4.37214C36.7676 2.65128 35.4803 1.29586 33.8453 0.835969C30.8823 5.07151e-08 18.9996 0 18.9996 0C18.9996 0 7.11681 5.07151e-08 4.15384 0.835969C2.51882 1.29586 1.23115 2.65128 0.794327 4.37214C-4.8485e-08 7.49181 0 14 0 14C0 14 -4.8485e-08 20.5082 0.79392 23.6279C1.23074 25.3488 2.51842 26.7042 4.15344 27.1641C7.11681 28.0001 18.9996 28.0001 18.9996 28.0001C18.9996 28.0001 30.8823 28.0001 33.8457 27.1641C35.4807 26.7038 36.768 25.3488 37.2052 23.6279C37.9992 20.5082 37.9992 14 37.9992 14C37.9992 14 37.9992 7.49181 37.2048 4.37214Z" fill="#FF0000"/>
</svg>
