<svg width="44" height="44" viewBox="0 0 44 44" fill="none" xmlns="http://www.w3.org/2000/svg">
<mask id="mask0_0_163" style="mask-type:alpha" maskUnits="userSpaceOnUse" x="0" y="0" width="44" height="44">
<circle cx="22" cy="22" r="22" fill="#C4C4C4"/>
</mask>
<g mask="url(#mask0_0_163)">
</g>
<path d="M41.6236 21.7156C41.6236 32.7936 32.6428 41.7744 21.5646 41.7744C10.4865 41.7744 1.50581 32.7936 1.50581 21.7156C1.50581 10.6374 10.4865 1.65674 21.5646 1.65674C32.6428 1.65674 41.6236 10.6374 41.6236 21.7156Z" fill="#FCD535"/>
<path d="M16.3876 19.5129L21.5645 14.3364L26.743 19.515L29.7553 16.5032L21.5645 8.31236L13.3758 16.5006L16.3876 19.5122V19.5129ZM8.23683 21.64L11.2491 18.6273L14.2608 21.64L11.2486 24.6508L8.23683 21.64ZM16.3876 23.7668L21.5645 28.9427L26.743 23.7642L29.7569 26.7743L21.5645 34.9678L13.3758 26.7784L13.3717 26.7738L16.3876 23.7663V23.7668ZM28.8672 21.64L31.879 18.6284L34.8922 21.64L31.8805 24.6518L28.8672 21.64Z" fill="black"/>
<path d="M24.6186 21.6403L21.5647 18.5816L19.3052 20.8401L19.0449 21.1003L18.5102 21.6351L18.5061 21.6392L18.5102 21.6434L21.5647 24.6972L24.6206 21.6413H24.6181" fill="black"/>
</svg>
